<svg width="35" height="21" viewBox="0 0 35 21" fill="none" xmlns="http://www.w3.org/2000/svg">
<path d="M28.4521 8.87995V2.23195H30.1441V3.63595C30.2481 3.33995 30.4081 3.07995 30.6241 2.85595C30.8401 2.63195 31.0921 2.45995 31.3801 2.33995C31.6681 2.21195 31.9642 2.14795 32.2682 2.14795C32.7722 2.14795 33.2122 2.25995 33.5882 2.48395C33.9722 2.70795 34.2682 3.03195 34.4762 3.45595C34.6842 3.87195 34.7882 4.37595 34.7882 4.96795V8.87995H33.1082V5.27995C33.1082 4.75195 32.9721 4.33995 32.7001 4.04395C32.4281 3.73995 32.0721 3.58795 31.6321 3.58795C31.3361 3.58795 31.0761 3.66795 30.8521 3.82795C30.6281 3.97995 30.4522 4.19195 30.3242 4.46395C30.2042 4.73595 30.1441 5.04795 30.1441 5.39995V8.87995H28.4521Z" fill="white"/>
<path d="M24.1783 8.96395C23.6663 8.96395 23.1903 8.88395 22.7503 8.72395C22.3183 8.56395 21.9383 8.33595 21.6103 8.03995C21.2903 7.74395 21.0383 7.39195 20.8543 6.98395C20.6783 6.56795 20.5903 6.10795 20.5903 5.60395C20.5903 5.08395 20.6823 4.61195 20.8663 4.18795C21.0503 3.76395 21.3063 3.39995 21.6343 3.09595C21.9623 2.79195 22.3383 2.55995 22.7623 2.39995C23.1863 2.23195 23.6343 2.14795 24.1063 2.14795C24.5063 2.14795 24.8823 2.20395 25.2343 2.31595C25.5863 2.41995 25.8943 2.57195 26.1583 2.77195C26.4303 2.96395 26.6383 3.19595 26.7823 3.46795C26.9343 3.73995 27.0103 4.03595 27.0103 4.35595C27.0103 4.77195 26.8903 5.11995 26.6503 5.39995C26.4103 5.67995 26.0903 5.90395 25.6903 6.07195C25.2983 6.23195 24.8663 6.34395 24.3943 6.40795C23.9223 6.46395 23.4583 6.48395 23.0023 6.46795C22.9303 6.45995 22.8463 6.45595 22.7503 6.45595C22.6543 6.45595 22.5663 6.45595 22.4863 6.45595C22.4143 6.44795 22.3663 6.44395 22.3423 6.44395C22.3903 6.65995 22.5023 6.85995 22.6783 7.04395C22.8623 7.22795 23.0863 7.37195 23.3503 7.47595C23.6143 7.57195 23.8983 7.61995 24.2023 7.61995C24.4663 7.61995 24.7223 7.57595 24.9703 7.48795C25.2183 7.39995 25.4463 7.27995 25.6543 7.12795C25.8703 6.96795 26.0463 6.79595 26.1823 6.61195L27.3463 7.48795C27.0903 7.82395 26.7943 8.10395 26.4583 8.32795C26.1223 8.54395 25.7623 8.70395 25.3783 8.80795C24.9943 8.91195 24.5943 8.96395 24.1783 8.96395ZM23.0623 5.25595C23.3263 5.25595 23.5903 5.24395 23.8543 5.21995C24.1263 5.19595 24.3743 5.15195 24.5983 5.08795C24.8303 5.01595 25.0143 4.91995 25.1503 4.79995C25.2943 4.67195 25.3663 4.51195 25.3663 4.31995C25.3663 4.15995 25.3103 4.01995 25.1983 3.89995C25.0943 3.77195 24.9503 3.67195 24.7663 3.59995C24.5903 3.51995 24.3863 3.47995 24.1543 3.47995C23.7863 3.47995 23.4583 3.56395 23.1703 3.73195C22.8903 3.89995 22.6703 4.11995 22.5103 4.39195C22.3503 4.65595 22.2623 4.93195 22.2463 5.21995C22.3423 5.22795 22.4623 5.23595 22.6063 5.24395C22.7503 5.25195 22.9023 5.25595 23.0623 5.25595Z" fill="white"/>
<path d="M14.0146 8.88V0H15.7066V4.92C16.1066 4.84 16.4866 4.684 16.8466 4.452C17.2066 4.212 17.5186 3.904 17.7826 3.528C18.0466 3.152 18.2306 2.72 18.3346 2.232H20.1346C20.0066 2.744 19.7986 3.22 19.5106 3.66C19.2306 4.1 18.9026 4.484 18.5266 4.812C18.1506 5.14 17.7586 5.384 17.3506 5.544C17.6626 5.632 17.9746 5.784 18.2866 6C18.5986 6.208 18.8906 6.464 19.1626 6.768C19.4346 7.064 19.6666 7.392 19.8586 7.752C20.0506 8.112 20.1786 8.488 20.2426 8.88H18.4426C18.3626 8.512 18.2306 8.18 18.0466 7.884C17.8626 7.58 17.6466 7.316 17.3986 7.092C17.1586 6.86 16.8906 6.672 16.5946 6.528C16.3066 6.384 16.0106 6.296 15.7066 6.264V8.88H14.0146Z" fill="white"/>
<path d="M9.3259 8.96395C8.6859 8.96395 8.10989 8.82395 7.59789 8.54395C7.09389 8.26395 6.68989 7.86795 6.38589 7.35595C6.08989 6.84395 5.94189 6.23995 5.94189 5.54395C5.94189 4.84795 6.09389 4.24795 6.39789 3.74395C6.70189 3.23195 7.11389 2.83995 7.63389 2.56795C8.15389 2.28795 8.73389 2.14795 9.37389 2.14795C10.0139 2.14795 10.5899 2.28795 11.1019 2.56795C11.6219 2.83995 12.0339 3.23195 12.3379 3.74395C12.6419 4.24795 12.7939 4.84795 12.7939 5.54395C12.7939 6.23995 12.6379 6.84395 12.3259 7.35595C12.0219 7.86795 11.6059 8.26395 11.0779 8.54395C10.5579 8.82395 9.9739 8.96395 9.3259 8.96395ZM9.3259 7.48795C9.6219 7.48795 9.90189 7.41995 10.1659 7.28395C10.4299 7.13995 10.6459 6.92395 10.8139 6.63595C10.9819 6.33995 11.0659 5.97595 11.0659 5.54395C11.0659 5.11195 10.9819 4.75195 10.8139 4.46395C10.6539 4.17595 10.4419 3.96395 10.1779 3.82795C9.92189 3.68395 9.64589 3.61195 9.34989 3.61195C9.05389 3.61195 8.77789 3.68395 8.52189 3.82795C8.27389 3.96395 8.06989 4.17595 7.90989 4.46395C7.74989 4.75195 7.66989 5.11195 7.66989 5.54395C7.66989 5.97595 7.74589 6.33995 7.89789 6.63595C8.04989 6.92395 8.24989 7.13995 8.49789 7.28395C8.75389 7.41995 9.0299 7.48795 9.3259 7.48795Z" fill="white"/>
<path d="M0 0.504028H6.156V1.87203H3.924V8.88003H2.232V1.87203H0V0.504028Z" fill="white"/>
<path d="M22.6885 20.564V11.684H24.3805V16.604C24.7805 16.524 25.1605 16.368 25.5205 16.136C25.8805 15.896 26.1925 15.588 26.4565 15.212C26.7205 14.836 26.9045 14.404 27.0085 13.916H28.8085C28.6805 14.428 28.4725 14.904 28.1845 15.344C27.9045 15.784 27.5765 16.168 27.2005 16.496C26.8245 16.824 26.4325 17.068 26.0245 17.228C26.3365 17.316 26.6485 17.468 26.9605 17.684C27.2725 17.892 27.5645 18.148 27.8365 18.452C28.1085 18.748 28.3405 19.076 28.5325 19.436C28.7245 19.796 28.8525 20.172 28.9165 20.564H27.1165C27.0365 20.196 26.9045 19.864 26.7205 19.568C26.5365 19.264 26.3205 19 26.0725 18.776C25.8325 18.544 25.5645 18.356 25.2685 18.212C24.9805 18.068 24.6845 17.98 24.3805 17.948V20.564H22.6885Z" fill="white"/>
<path d="M14.7549 20.5639V13.9159H16.4469V15.3199C16.5509 15.0239 16.7109 14.7639 16.9269 14.5399C17.1429 14.3159 17.3949 14.1439 17.6829 14.0239C17.9709 13.8959 18.2669 13.8319 18.5709 13.8319C19.0749 13.8319 19.5149 13.9439 19.8909 14.1679C20.2749 14.3919 20.5709 14.7159 20.7789 15.1399C20.9869 15.5559 21.0909 16.0599 21.0909 16.6519V20.5639H19.4109V16.9639C19.4109 16.4359 19.2749 16.0239 19.0029 15.7279C18.7309 15.4239 18.3749 15.2719 17.9349 15.2719C17.6389 15.2719 17.3789 15.3519 17.1549 15.5119C16.9309 15.6639 16.7549 15.8759 16.6269 16.1479C16.5069 16.4199 16.4469 16.7319 16.4469 17.0839V20.5639H14.7549Z" fill="white"/>
<path d="M11.3794 20.564V13.916H13.0834V20.564H11.3794ZM12.2434 13.112C11.9074 13.112 11.6274 13.012 11.4034 12.812C11.1794 12.604 11.0674 12.348 11.0674 12.044C11.0674 11.74 11.1794 11.484 11.4034 11.276C11.6274 11.068 11.9074 10.964 12.2434 10.964C12.5794 10.964 12.8594 11.068 13.0834 11.276C13.3074 11.484 13.4194 11.74 13.4194 12.044C13.4194 12.348 13.3074 12.604 13.0834 12.812C12.8594 13.012 12.5794 13.112 12.2434 13.112Z" fill="white"/>
<path d="M7.56407 12.188V19.232H10.3241V20.564H5.87207V12.188H7.56407Z" fill="white"/>
</svg>
