<svg width="35" height="53" viewBox="0 0 35 53" fill="none" xmlns="http://www.w3.org/2000/svg">
<path d="M14.394 20.75C13.3582 20.75 12.4742 20.384 11.742 19.652C11.01 18.9198 10.644 18.0358 10.644 17V8.652C10.0607 8.43533 9.58154 8.08883 9.20654 7.6125C8.83154 7.13617 8.64404 6.59975 8.64404 6.00325C8.64404 5.23842 8.91129 4.58833 9.44579 4.053C9.98029 3.51767 10.6293 3.25 11.3928 3.25C12.1565 3.25 12.8059 3.51767 13.341 4.053C13.8764 4.58833 14.144 5.23842 14.144 6.00325C14.144 6.59975 13.9565 7.13617 13.5815 7.6125C13.2065 8.08883 12.7274 8.43533 12.144 8.652V17C12.144 17.6188 12.3645 18.1485 12.8055 18.589C13.2465 19.0297 13.7766 19.25 14.3958 19.25C15.0151 19.25 15.5447 19.0297 15.9845 18.589C16.4242 18.1485 16.644 17.6188 16.644 17V7C16.644 5.96417 17.01 5.08017 17.742 4.348C18.4742 3.616 19.3582 3.25 20.394 3.25C21.4299 3.25 22.3139 3.616 23.046 4.348C23.778 5.08017 24.144 5.96417 24.144 7V15.348C24.7274 15.5647 25.2065 15.9112 25.5815 16.3875C25.9565 16.8638 26.144 17.4003 26.144 17.9968C26.144 18.7616 25.8768 19.4117 25.3423 19.947C24.8078 20.4823 24.1588 20.75 23.3953 20.75C22.6316 20.75 21.9822 20.4823 21.447 19.947C20.9117 19.4117 20.644 18.7616 20.644 17.9968C20.644 17.4003 20.8315 16.8597 21.2065 16.375C21.5815 15.8903 22.0607 15.548 22.644 15.348V7C22.644 6.38117 22.4235 5.8515 21.9825 5.411C21.5415 4.97033 21.0115 4.75 20.3923 4.75C19.773 4.75 19.2434 4.97033 18.8035 5.411C18.3639 5.8515 18.144 6.38117 18.144 7V17C18.144 18.0358 17.778 18.9198 17.046 19.652C16.3139 20.384 15.4299 20.75 14.394 20.75Z" fill="white"/>
<path d="M28.4521 40.8799V34.2319H30.1441V35.6359C30.2481 35.3399 30.4081 35.0799 30.6241 34.8559C30.8401 34.6319 31.0921 34.4599 31.3801 34.3399C31.6681 34.2119 31.9642 34.1479 32.2682 34.1479C32.7722 34.1479 33.2122 34.2599 33.5882 34.4839C33.9722 34.7079 34.2682 35.0319 34.4762 35.4559C34.6842 35.8719 34.7882 36.3759 34.7882 36.9679V40.8799H33.1082V37.2799C33.1082 36.7519 32.9721 36.3399 32.7001 36.0439C32.4281 35.7399 32.0721 35.5879 31.6321 35.5879C31.3361 35.5879 31.0761 35.6679 30.8521 35.8279C30.6281 35.9799 30.4522 36.1919 30.3242 36.4639C30.2042 36.7359 30.1441 37.0479 30.1441 37.3999V40.8799H28.4521Z" fill="white"/>
<path d="M24.1783 40.9639C23.6663 40.9639 23.1903 40.8839 22.7503 40.7239C22.3183 40.5639 21.9383 40.3359 21.6103 40.0399C21.2903 39.7439 21.0383 39.3919 20.8543 38.9839C20.6783 38.5679 20.5903 38.1079 20.5903 37.6039C20.5903 37.0839 20.6823 36.6119 20.8663 36.1879C21.0503 35.7639 21.3063 35.3999 21.6343 35.0959C21.9623 34.7919 22.3383 34.5599 22.7623 34.3999C23.1863 34.2319 23.6343 34.1479 24.1063 34.1479C24.5063 34.1479 24.8823 34.2039 25.2343 34.3159C25.5863 34.4199 25.8943 34.5719 26.1583 34.7719C26.4303 34.9639 26.6383 35.1959 26.7823 35.4679C26.9343 35.7399 27.0103 36.0359 27.0103 36.3559C27.0103 36.7719 26.8903 37.1199 26.6503 37.3999C26.4103 37.6799 26.0903 37.9039 25.6903 38.0719C25.2983 38.2319 24.8663 38.3439 24.3943 38.4079C23.9223 38.4639 23.4583 38.4839 23.0023 38.4679C22.9303 38.4599 22.8463 38.4559 22.7503 38.4559C22.6543 38.4559 22.5663 38.4559 22.4863 38.4559C22.4143 38.4479 22.3663 38.4439 22.3423 38.4439C22.3903 38.6599 22.5023 38.8599 22.6783 39.0439C22.8623 39.2279 23.0863 39.3719 23.3503 39.4759C23.6143 39.5719 23.8983 39.6199 24.2023 39.6199C24.4663 39.6199 24.7223 39.5759 24.9703 39.4879C25.2183 39.3999 25.4463 39.2799 25.6543 39.1279C25.8703 38.9679 26.0463 38.7959 26.1823 38.6119L27.3463 39.4879C27.0903 39.8239 26.7943 40.1039 26.4583 40.3279C26.1223 40.5439 25.7623 40.704 25.3783 40.808C24.9943 40.912 24.5943 40.9639 24.1783 40.9639ZM23.0623 37.2559C23.3263 37.2559 23.5903 37.2439 23.8543 37.2199C24.1263 37.1959 24.3743 37.1519 24.5983 37.0879C24.8303 37.0159 25.0143 36.9199 25.1503 36.7999C25.2943 36.6719 25.3663 36.5119 25.3663 36.3199C25.3663 36.1599 25.3103 36.0199 25.1983 35.8999C25.0943 35.7719 24.9503 35.6719 24.7663 35.5999C24.5903 35.5199 24.3863 35.4799 24.1543 35.4799C23.7863 35.4799 23.4583 35.5639 23.1703 35.7319C22.8903 35.8999 22.6703 36.1199 22.5103 36.3919C22.3503 36.6559 22.2623 36.9319 22.2463 37.2199C22.3423 37.2279 22.4623 37.2359 22.6063 37.2439C22.7503 37.2519 22.9023 37.2559 23.0623 37.2559Z" fill="white"/>
<path d="M14.0146 40.88V32H15.7066V36.92C16.1066 36.84 16.4866 36.684 16.8466 36.452C17.2066 36.212 17.5186 35.904 17.7826 35.528C18.0466 35.152 18.2306 34.72 18.3346 34.232H20.1346C20.0066 34.744 19.7986 35.22 19.5106 35.66C19.2306 36.1 18.9026 36.484 18.5266 36.812C18.1506 37.14 17.7586 37.384 17.3506 37.544C17.6626 37.632 17.9746 37.784 18.2866 38C18.5986 38.208 18.8906 38.464 19.1626 38.768C19.4346 39.064 19.6666 39.392 19.8586 39.752C20.0506 40.112 20.1786 40.488 20.2426 40.88H18.4426C18.3626 40.512 18.2306 40.18 18.0466 39.884C17.8626 39.58 17.6466 39.316 17.3986 39.092C17.1586 38.86 16.8906 38.672 16.5946 38.528C16.3066 38.384 16.0106 38.296 15.7066 38.264V40.88H14.0146Z" fill="white"/>
<path d="M9.3259 40.9639C8.6859 40.9639 8.10989 40.8239 7.59789 40.5439C7.09389 40.2639 6.68989 39.8679 6.38589 39.3559C6.08989 38.8439 5.94189 38.2399 5.94189 37.5439C5.94189 36.8479 6.09389 36.2479 6.39789 35.7439C6.70189 35.2319 7.11389 34.8399 7.63389 34.5679C8.15389 34.2879 8.73389 34.1479 9.37389 34.1479C10.0139 34.1479 10.5899 34.2879 11.1019 34.5679C11.6219 34.8399 12.0339 35.2319 12.3379 35.7439C12.6419 36.2479 12.7939 36.8479 12.7939 37.5439C12.7939 38.2399 12.6379 38.8439 12.3259 39.3559C12.0219 39.8679 11.6059 40.2639 11.0779 40.5439C10.5579 40.8239 9.9739 40.9639 9.3259 40.9639ZM9.3259 39.4879C9.6219 39.4879 9.90189 39.4199 10.1659 39.2839C10.4299 39.1399 10.6459 38.9239 10.8139 38.6359C10.9819 38.3399 11.0659 37.9759 11.0659 37.5439C11.0659 37.1119 10.9819 36.7519 10.8139 36.4639C10.6539 36.1759 10.4419 35.9639 10.1779 35.8279C9.92189 35.6839 9.64589 35.6119 9.34989 35.6119C9.05389 35.6119 8.77789 35.6839 8.52189 35.8279C8.27389 35.9639 8.06989 36.1759 7.90989 36.4639C7.74989 36.7519 7.66989 37.1119 7.66989 37.5439C7.66989 37.9759 7.74589 38.3399 7.89789 38.6359C8.04989 38.9239 8.24989 39.1399 8.49789 39.2839C8.75389 39.4199 9.0299 39.4879 9.3259 39.4879Z" fill="white"/>
<path d="M0 32.5039H6.156V33.8719H3.924V40.8799H2.232V33.8719H0V32.5039Z" fill="white"/>
<path d="M22.6885 52.5638V43.6838H24.3805V48.6038C24.7805 48.5238 25.1605 48.3678 25.5205 48.1358C25.8805 47.8958 26.1925 47.5878 26.4565 47.2118C26.7205 46.8358 26.9045 46.4038 27.0085 45.9158H28.8085C28.6805 46.4278 28.4725 46.9038 28.1845 47.3438C27.9045 47.7838 27.5765 48.1678 27.2005 48.4958C26.8245 48.8238 26.4325 49.0678 26.0245 49.2278C26.3365 49.3158 26.6485 49.4678 26.9605 49.6838C27.2725 49.8918 27.5645 50.1478 27.8365 50.4518C28.1085 50.7478 28.3405 51.0758 28.5325 51.4358C28.7245 51.7958 28.8525 52.1718 28.9165 52.5638H27.1165C27.0365 52.1958 26.9045 51.8638 26.7205 51.5678C26.5365 51.2638 26.3205 50.9998 26.0725 50.7758C25.8325 50.5438 25.5645 50.3558 25.2685 50.2118C24.9805 50.0678 24.6845 49.9798 24.3805 49.9478V52.5638H22.6885Z" fill="white"/>
<path d="M14.7549 52.5638V45.9158H16.4469V47.3198C16.5509 47.0238 16.7109 46.7638 16.9269 46.5398C17.1429 46.3158 17.3949 46.1438 17.6829 46.0238C17.9709 45.8958 18.2669 45.8318 18.5709 45.8318C19.0749 45.8318 19.5149 45.9438 19.8909 46.1678C20.2749 46.3918 20.5709 46.7158 20.7789 47.1398C20.9869 47.5558 21.0909 48.0598 21.0909 48.6518V52.5638H19.4109V48.9638C19.4109 48.4358 19.2749 48.0238 19.0029 47.7278C18.7309 47.4238 18.3749 47.2718 17.9349 47.2718C17.6389 47.2718 17.3789 47.3518 17.1549 47.5118C16.9309 47.6638 16.7549 47.8758 16.6269 48.1478C16.5069 48.4198 16.4469 48.7318 16.4469 49.0838V52.5638H14.7549Z" fill="white"/>
<path d="M11.3794 52.5639V45.9159H13.0834V52.5639H11.3794ZM12.2434 45.1119C11.9074 45.1119 11.6274 45.0119 11.4034 44.8119C11.1794 44.6039 11.0674 44.3479 11.0674 44.0439C11.0674 43.7399 11.1794 43.4839 11.4034 43.2759C11.6274 43.0679 11.9074 42.9639 12.2434 42.9639C12.5794 42.9639 12.8594 43.0679 13.0834 43.2759C13.3074 43.4839 13.4194 43.7399 13.4194 44.0439C13.4194 44.3479 13.3074 44.6039 13.0834 44.8119C12.8594 45.0119 12.5794 45.1119 12.2434 45.1119Z" fill="white"/>
<path d="M7.56407 44.188V51.232H10.3241V52.564H5.87207V44.188H7.56407Z" fill="white"/>
</svg>
